<svg width="123" height="74" viewBox="0 0 123 74" fill="none" xmlns="http://www.w3.org/2000/svg">
<g clip-path="url(#clip0_1_4)">
<path d="M122.88 71.3894C118.41 72.5576 115.645 71.4406 113.165 67.6119L95.5241 42.5206L92.974 39.0463L72.3725 67.6953C70.0187 71.1421 67.5498 72.641 63.1565 71.4216L89.5374 35.0159L64.9766 2.13082C69.2004 1.28664 72.1191 1.71583 74.7106 5.60512L93.0081 31.0091L111.44 5.74344C113.801 2.29662 116.34 0.987244 120.58 2.25683L111.057 15.2369L98.1543 32.508C96.618 34.4815 96.8291 35.8326 98.2428 37.7379L122.88 71.3894ZM0.0313345 34.4076L2.18881 23.4958C8.06402 1.90153 32.1409 -7.07177 48.7454 6.27117C58.4489 14.1189 60.8608 25.2202 60.3806 37.6555H5.68352C4.86237 60.039 20.5333 73.5477 40.5118 66.656C47.5197 64.2362 51.6475 58.5941 53.7137 51.5366C54.7625 47.9997 56.497 47.4464 59.7309 48.4573C58.0803 57.2847 54.3552 64.6587 46.4829 69.2738C34.7214 76.1816 17.9316 73.9475 9.10082 64.347C3.8394 58.776 1.66626 51.7185 0.691202 44.1701C0.537294 42.9223 0.230401 41.7342 0 40.5385C0.0202753 38.4958 0.0313345 36.4541 0.0313345 34.4114V34.4076V34.4076ZM5.78305 32.9078H55.2114C54.8888 16.7225 45.0857 5.22614 31.6875 5.12855C16.9805 5.01012 6.41988 16.2327 5.78213 32.9078H5.78305V32.9078Z" fill="#4070F4"/>
</g>
<defs>
<clipPath id="clip0_1_4">
<rect width="122.88" height="73.29" fill="white"/>
</clipPath>
</defs>
</svg>
